{"title":"Breakthrough S01E05 720p H264 Eng-Ac3 Sub-Ita [TNT Village]","uid":13002923,"size":1439762000,"categoryP":"video","categoryS":"hd___tv_shows","magnet":"?xt=urn:btih:c04cf9b910407a206c30f4400d88bc4a4bc45f57&amp;dn=Breakthrough+S01E05+720p+H264+Eng-Ac3+Sub-Ita+%5BTNT+Village%5D&amp;tr=udp%3A%2F%2Ftracker.leechers-paradise.org%3A6969&amp;tr=udp%3A%2F%2Fzer0day.ch%3A1337&amp;tr=udp%3A%2F%2Fopen.demonii.com%3A1337&amp;tr=udp%3A%2F%2Ftracker.coppersurfer.tk%3A6969&amp;tr=udp%3A%2F%2Fexodus.desync.com%3A6969","seeders":0,"leechers":1,"uploader":"Maskul93","files":1,"time":1450206714,"description":"Original Post: http://forum.tntvillage.scambioetico.org/index.php?showtopic=483683\r\n\r\n[u][b][SIZE=14][color=blue]Breakthrough S01E05 - Energy On The Edge[/SIZE][/color][/b][/u]\r\n[u][b][SIZE=7][color=red]HDTV - 720p - H264 - Eng Ac3 - Sub Ita[/SIZE][/color][/b][/u]\r\n[u][b][SIZE=7][color=black]Documentario National Geographic[/SIZE][/color][/b][/u]\r\n\r\n\r\n[b][color=green].: Descrizione :.[/color][/b]\r\n[b]Breakthrough[/b] è una serie di documentari prodotti da National Geographic Channel, che cerca di mettere in risalto come il progresso tecnico-scientifico vada ad affrontare problemi su larga scala. Vi è la presenza di Ron Howard, Brian Grazer e General Electric a supporto di tutto ciò.\r\n\r\nAkiva Goldsman, attraverso la voce di Jason Bateman, ci porta a visitare le realtà più innovative nel settore dell'energia rinnovabile. Buona visione! Buona visione! \r\n\r\n[b][color=green].: Dettagli Tecnici :.[/color][/b]\r\nGeneral\r\nUnique ID                                : 136159902892791918371244184001411129666 (0x666F71840354624987FDC77E769DA142)\r\nComplete name                            : Breakthrough.S01E05.720p.x264.Eng.Sub.Ita.Maskul.mkv\r\nFormat                                   : Matroska\r\nFormat version                           : Version 4 / Version 2\r\nFile size                                : 1.34 GiB\r\nDuration                                 : 43mn 55s\r\nOverall bit rate                         : 4 370 Kbps\r\nMovie name                               : Energy On The Edge\r\nEncoded date                             : UTC 2015-12-15 08:11:03\r\nWriting application                      : mkvmerge v8.6.1 ('Flying') 64bit\r\nWriting library                          : libebml v1.3.3 + libmatroska v1.4.4\r\nDURATION                                 : 00:43:36.964000000\r\nNUMBER_OF_FRAMES                         : 684\r\nNUMBER_OF_BYTES                          : 32577\r\n_STATISTICS_WRITING_APP                  : mkvmerge v8.6.1 ('Flying') 64bit\r\n_STATISTICS_WRITING_DATE_UTC             : 2015-12-15 08:11:03\r\n_STATISTICS_TAGS                         : BPS DURATION NUMBER_OF_FRAMES NUMBER_OF_BYTES\r\n\r\nVideo\r\nID                                       : 1\r\nFormat                                   : AVC\r\nFormat/Info                              : Advanced Video Codec\r\nFormat profile                           :   \r\nFormat settings, CABAC                   : Yes\r\nFormat settings, ReFrames                : 5 frames\r\nCodec ID                                 : V_MPEG4/ISO/AVC\r\nDuration                                 : 43mn 55s\r\nBit rate                                 : 3 899 Kbps\r\nWidth                                    : 1 280 pixels\r\nHeight                                   : 720 pixels\r\nDisplay aspect ratio                     : 16:9\r\nFrame rate mode                          : Constant\r\nFrame rate                               : 23.976 fps\r\nColor space                              : YUV\r\nChroma subsampling                       : 4:2:0\r\nBit depth                                : 8 bits\r\nScan type                                : Progressive\r\nBits/(Pixel*Frame)                       : 0.176\r\nStream size                              : 1.20 GiB (89%)\r\nWriting library                          : x264 core 148 r2638 7599210\r\nEncoding settings                        : cabac=1 / ref=5 / deblock=1:0:0 / analyse=0x3:0x113 / me=umh / subme=8 / psy=1 / psy_rd=1.00:0.00 / mixed_ref=1 / me_range=16 / chroma_me=1 / trellis=1 / 8x8dct=1 / cqm=0 / deadzone=21,11 / fast_pskip=1 / chroma_qp_offset=-2 / threads=12 / lookahead_threads=2 / sliced_threads=0 / nr=0 / decimate=1 / interlaced=0 / bluray_compat=0 / constrained_intra=0 / bframes=3 / b_pyramid=2 / b_adapt=2 / b_bias=0 / direct=3 / weightb=1 / open_gop=0 / weightp=2 / keyint=250 / keyint_min=23 / scenecut=40 / intra_refresh=0 / rc_lookahead=50 / rc=crf / mbtree=1 / crf=20.0 / qcomp=0.60 / qpmin=0 / qpmax=69 / qpstep=4 / ip_ratio=1.40 / aq=1:1.00\r\nDefault                                  : Yes\r\nForced                                   : No\r\n\r\nAudio\r\nID                                       : 2\r\nFormat                                   : AC-3\r\nFormat/Info                              : Audio Coding 3\r\nMode extension                           : CM (complete main)\r\nFormat settings, Endianness              : Big\r\nCodec ID                                 : A_AC3\r\nDuration                                 : 43mn 55s\r\nBit rate mode                            : Constant\r\nBit rate                                 : 384 Kbps\r\nChannel(s)                               : 6 channels\r\nChannel positions                        : Front: L C R, Side: L R, LFE\r\nSampling rate                            : 48.0 KHz\r\nBit depth                                : 16 bits\r\nCompression mode                         : Lossy\r\nStream size                              : 121 MiB (9%)\r\nDefault                                  : Yes\r\nForced                                   : No\r\n\r\nText\r\nID                                       : 3\r\nFormat                                   : UTF-8\r\nCodec ID                                 : S_TEXT/UTF8\r\nCodec ID/Info                            : UTF-8 Plain Text\r\nLanguage                                 : Italian\r\nDefault                                  : Yes\r\nForced                                   : Yes\r\n\r\n\r\n\r\n\r\n[b][color=green].: ScreenShot :.[/b][/color]\r\n\r\n\r\n\r\n[b][color=green].: Info Generali :. [/color][/b]\r\n[b]Anno:[/b] 2015\r\n[b]Genere: [/b] Documentario\r\n[b]Durata:[/b] 43m \r\n[b]Audio: [/b]Inglese.\r\n[b]Sottotitoli:[/b] Italiano.\r\n\r\n[b][color=green].: Dettagli :.[/color]\r\nOrario di seed e Banda disponibile: [color=red]Dalle 9.00 alle 24.00 tutti i giorni. Banda disponibile 1Mb/s.[/color][/b] \r\n\r\n:ok0: :ok0:  [color=purple][b][i]Powered by Maskul93.[/b][/i][/color] :ok0: :ok0:\r\n\r\nE un rigraziamento ai ragazzi di ItalianSubs! ;)","torrent":{"xt":"urn:btih:c04cf9b910407a206c30f4400d88bc4a4bc45f57","amp;dn":"Breakthrough+S01E05+720p+H264+Eng-Ac3+Sub-Ita+%5BTNT+Village%5D","amp;tr":["udp%3A%2F%2Ftracker.leechers-paradise.org%3A6969","udp%3A%2F%2Fzer0day.ch%3A1337","udp%3A%2F%2Fopen.demonii.com%3A1337","udp%3A%2F%2Ftracker.coppersurfer.tk%3A6969","udp%3A%2F%2Fexodus.desync.com%3A6969"],"infoHash":"c04cf9b910407a206c30f4400d88bc4a4bc45f57","infoHashBuffer":{"type":"Buffer","data":[192,76,249,185,16,64,122,32,108,48,244,64,13,136,188,74,75,196,95,87]},"announce":[],"urlList":[]}}